<svg width="380" height="190" viewBox="0 0 380 190" fill="none" xmlns="http://www.w3.org/2000/svg">
<g filter="url(#filter0_d_59_4)">
<path d="M40 70C40 42.3858 62.3858 20 90 20H330C335.523 20 340 24.4772 340 30V80C340 107.614 317.614 130 290 130H50C44.4772 130 40 125.523 40 120V70Z" fill="white" shape-rendering="crispEdges"/>
<circle cx="95" cy="75" r="25" fill="#FDEDEF"/>
<path d="M101.092 85.4375C100.139 85.4375 98.7999 85.0928 96.795 83.9727C94.357 82.6055 92.4713 81.3433 90.0465 78.9248C87.7086 76.5884 86.5709 75.0757 84.9786 72.1783C83.1798 68.9068 83.4864 67.1919 83.8292 66.459C84.2374 65.583 84.8399 65.0591 85.6187 64.5391C86.0611 64.2493 86.5292 64.0008 87.0172 63.7969C87.066 63.7759 87.1114 63.7559 87.1519 63.7378C87.3936 63.6289 87.7599 63.4644 88.2237 63.6402C88.5333 63.7564 88.8097 63.9942 89.2423 64.4214C90.1295 65.2964 91.3419 67.2452 91.7891 68.2022C92.0894 68.8472 92.2882 69.273 92.2887 69.7505C92.2887 70.3096 92.0074 70.7408 91.6661 71.2061C91.6021 71.2935 91.5387 71.377 91.4771 71.458C91.1056 71.9463 91.024 72.0874 91.0777 72.3394C91.1866 72.8457 91.9986 74.3531 93.3331 75.6846C94.6676 77.0161 96.1314 77.7769 96.6397 77.8853C96.9024 77.9414 97.0465 77.8565 97.5504 77.4717C97.6226 77.4165 97.6969 77.3594 97.7745 77.3023C98.295 76.9151 98.7061 76.6411 99.252 76.6411H99.255C99.7301 76.6411 100.137 76.8472 100.811 77.187C101.69 77.6304 103.697 78.8272 104.577 79.7154C105.005 80.147 105.244 80.4224 105.361 80.7315C105.537 81.1968 105.371 81.5616 105.263 81.8057C105.245 81.8462 105.225 81.8907 105.204 81.94C104.999 82.4271 104.749 82.8942 104.458 83.3355C103.939 84.1119 103.413 84.7129 102.535 85.1216C102.084 85.3349 101.591 85.4429 101.092 85.4375Z" fill="#EE4A62"/>
<path d="M140.122 66.091C139.264 66.091 138.475 65.8917 137.756 65.493C137.045 65.0943 136.478 64.5397 136.053 63.829C135.637 63.1097 135.429 62.3037 135.429 61.411C135.429 60.5183 135.637 59.7167 136.053 59.006C136.478 58.2953 137.045 57.7407 137.756 57.342C138.475 56.9433 139.264 56.744 140.122 56.744C140.98 56.744 141.764 56.9433 142.475 57.342C143.194 57.7407 143.758 58.2953 144.165 59.006C144.581 59.7167 144.789 60.5183 144.789 61.411C144.789 62.3037 144.581 63.1097 144.165 63.829C143.749 64.5397 143.186 65.0943 142.475 65.493C141.764 65.8917 140.98 66.091 140.122 66.091ZM140.122 64.063C140.85 64.063 141.431 63.8203 141.864 63.335C142.306 62.8497 142.527 62.2083 142.527 61.411C142.527 60.605 142.306 59.9637 141.864 59.487C141.431 59.0017 140.85 58.759 140.122 58.759C139.385 58.759 138.796 58.9973 138.354 59.474C137.921 59.9507 137.704 60.5963 137.704 61.411C137.704 62.217 137.921 62.8627 138.354 63.348C138.796 63.8247 139.385 64.063 140.122 64.063ZM154.58 66H152.357L148.639 60.371V66H146.416V56.874H148.639L152.357 62.529V56.874H154.58V66ZM158.804 64.284H161.716V66H156.581V56.874H158.804V64.284ZM165.389 56.874V66H163.166V56.874H165.389ZM175.554 66H173.331L169.613 60.371V66H167.39V56.874H169.613L173.331 62.529V56.874H175.554V66ZM179.779 58.655V60.501H182.756V62.217H179.779V64.219H183.146V66H177.556V56.874H183.146V58.655H179.779ZM191.426 66.091C190.759 66.091 190.161 65.9827 189.632 65.766C189.103 65.5493 188.679 65.2287 188.358 64.804C188.046 64.3793 187.881 63.868 187.864 63.27H190.23C190.265 63.608 190.382 63.868 190.581 64.05C190.78 64.2233 191.04 64.31 191.361 64.31C191.69 64.31 191.95 64.2363 192.141 64.089C192.332 63.933 192.427 63.7207 192.427 63.452C192.427 63.2267 192.349 63.0403 192.193 62.893C192.046 62.7457 191.859 62.6243 191.634 62.529C191.417 62.4337 191.105 62.3253 190.698 62.204C190.109 62.022 189.628 61.84 189.255 61.658C188.882 61.476 188.562 61.2073 188.293 60.852C188.024 60.4967 187.89 60.033 187.89 59.461C187.89 58.6117 188.198 57.9487 188.813 57.472C189.428 56.9867 190.23 56.744 191.218 56.744C192.223 56.744 193.034 56.9867 193.649 57.472C194.264 57.9487 194.594 58.616 194.637 59.474H192.232C192.215 59.1793 192.106 58.9497 191.907 58.785C191.708 58.6117 191.452 58.525 191.14 58.525C190.871 58.525 190.655 58.5987 190.49 58.746C190.325 58.8847 190.243 59.0883 190.243 59.357C190.243 59.6517 190.382 59.8813 190.659 60.046C190.936 60.2107 191.37 60.3883 191.959 60.579C192.548 60.7783 193.025 60.969 193.389 61.151C193.762 61.333 194.082 61.5973 194.351 61.944C194.62 62.2907 194.754 62.737 194.754 63.283C194.754 63.803 194.62 64.2753 194.351 64.7C194.091 65.1247 193.71 65.4627 193.207 65.714C192.704 65.9653 192.111 66.091 191.426 66.091ZM198.696 56.874V62.334C198.696 62.88 198.83 63.3003 199.099 63.595C199.368 63.8897 199.762 64.037 200.282 64.037C200.802 64.037 201.201 63.8897 201.478 63.595C201.755 63.3003 201.894 62.88 201.894 62.334V56.874H204.117V62.321C204.117 63.1357 203.944 63.8247 203.597 64.388C203.25 64.9513 202.782 65.376 202.193 65.662C201.612 65.948 200.962 66.091 200.243 66.091C199.524 66.091 198.878 65.9523 198.306 65.675C197.743 65.389 197.296 64.9643 196.967 64.401C196.638 63.829 196.473 63.1357 196.473 62.321V56.874H198.696ZM213.023 59.812C213.023 60.3407 212.902 60.826 212.659 61.268C212.416 61.7013 212.044 62.0523 211.541 62.321C211.038 62.5897 210.414 62.724 209.669 62.724H208.291V66H206.068V56.874H209.669C210.397 56.874 211.012 56.9997 211.515 57.251C212.018 57.5023 212.395 57.849 212.646 58.291C212.897 58.733 213.023 59.24 213.023 59.812ZM209.5 60.956C209.925 60.956 210.241 60.8563 210.449 60.657C210.657 60.4577 210.761 60.176 210.761 59.812C210.761 59.448 210.657 59.1663 210.449 58.967C210.241 58.7677 209.925 58.668 209.5 58.668H208.291V60.956H209.5ZM221.525 59.812C221.525 60.3407 221.404 60.826 221.161 61.268C220.919 61.7013 220.546 62.0523 220.043 62.321C219.541 62.5897 218.917 62.724 218.171 62.724H216.793V66H214.57V56.874H218.171C218.899 56.874 219.515 56.9997 220.017 57.251C220.52 57.5023 220.897 57.849 221.148 58.291C221.4 58.733 221.525 59.24 221.525 59.812ZM218.002 60.956C218.427 60.956 218.743 60.8563 218.951 60.657C219.159 60.4577 219.263 60.176 219.263 59.812C219.263 59.448 219.159 59.1663 218.951 58.967C218.743 58.7677 218.427 58.668 218.002 58.668H216.793V60.956H218.002ZM227.389 66.091C226.531 66.091 225.742 65.8917 225.023 65.493C224.312 65.0943 223.744 64.5397 223.32 63.829C222.904 63.1097 222.696 62.3037 222.696 61.411C222.696 60.5183 222.904 59.7167 223.32 59.006C223.744 58.2953 224.312 57.7407 225.023 57.342C225.742 56.9433 226.531 56.744 227.389 56.744C228.247 56.744 229.031 56.9433 229.742 57.342C230.461 57.7407 231.024 58.2953 231.432 59.006C231.848 59.7167 232.056 60.5183 232.056 61.411C232.056 62.3037 231.848 63.1097 231.432 63.829C231.016 64.5397 230.452 65.0943 229.742 65.493C229.031 65.8917 228.247 66.091 227.389 66.091ZM227.389 64.063C228.117 64.063 228.697 63.8203 229.131 63.335C229.573 62.8497 229.794 62.2083 229.794 61.411C229.794 60.605 229.573 59.9637 229.131 59.487C228.697 59.0017 228.117 58.759 227.389 58.759C226.652 58.759 226.063 58.9973 225.621 59.474C225.187 59.9507 224.971 60.5963 224.971 61.411C224.971 62.217 225.187 62.8627 225.621 63.348C226.063 63.8247 226.652 64.063 227.389 64.063ZM238.336 66L236.438 62.555H235.905V66H233.682V56.874H237.413C238.133 56.874 238.744 56.9997 239.246 57.251C239.758 57.5023 240.139 57.849 240.39 58.291C240.642 58.7243 240.767 59.2097 240.767 59.747C240.767 60.3537 240.594 60.8953 240.247 61.372C239.909 61.8487 239.407 62.1867 238.739 62.386L240.845 66H238.336ZM235.905 60.982H237.283C237.691 60.982 237.994 60.8823 238.193 60.683C238.401 60.4837 238.505 60.202 238.505 59.838C238.505 59.4913 238.401 59.2183 238.193 59.019C237.994 58.8197 237.691 58.72 237.283 58.72H235.905V60.982ZM249.118 56.874V58.655H246.7V66H244.477V58.655H242.059V56.874H249.118Z" fill="#89898B"/>
<path d="M141.18 84V87.55H136.9V85.87H141.18V81.58H142.86V85.87H147.15V87.55H142.86V91.84H141.18ZM157.323 95.32C155.976 95.32 154.796 94.9633 153.783 94.25C152.77 93.53 151.98 92.5267 151.24C150.853 89.9533 150.573 88.46 150.573 86.76C150.573 85.0533 150.853 83.56 151" fill="#EF5269"/>
</g>
<defs>
<filter id="filter0_d_59_4" x="0" y="0" width="380" height="190" filterUnits="userSpaceOnUse" color-interpolation-filters="sRGB">
<feFlood flood-opacity="0" result="BackgroundImageFix"/>
<feColorMatrix in="SourceAlpha" type="matrix" values="0 0 0 0 0 0 0 0 0 0 0 0 0 0 0 0 0 0 127 0" result="hardAlpha"/>
<feOffset dy="20"/>
<feGaussianBlur stdDeviation="20"/>
<feComposite in2="hardAlpha" operator="out"/>
<feColorMatrix type="matrix" values="0 0 0 0 0 0 0 0 0 0 0 0 0 0 0 0 0 0 0.1 0"/>
<feBlend mode="normal" in2="BackgroundImageFix" result="effect1_dropShadow_59_4"/>
<feBlend mode="normal" in="SourceGraphic" in2="effect1_dropShadow_59_4" result="shape"/>
</filter>
</defs>
</svg>
